<svg width="30" height="31" viewBox="0 0 30 31" fill="none" xmlns="http://www.w3.org/2000/svg">
<path d="M11.2539 19.5762L7.54391 23.2862C7.13099 23.699 6.60495 23.9801 6.03228 24.094C5.45962 24.2079 4.86604 24.1494 4.3266 23.926C3.78715 23.7026 3.32607 23.3242 3.00164 22.8388C2.67721 22.3533 2.504 21.7826 2.50391 21.1987V19.5762L4.20016 11.0962C4.42671 9.9627 5.03898 8.94274 5.9328 8.20981C6.82662 7.47689 7.94677 7.07629 9.10266 7.07617H20.9052C22.061 7.07629 23.1812 7.47689 24.075 8.20981C24.9688 8.94274 25.5811 9.9627 25.8077 11.0962L27.5039 19.5762V21.1974C27.5038 21.7813 27.3306 22.3521 27.0062 22.8375C26.6817 23.323 26.2207 23.7013 25.6812 23.9247C25.1418 24.1482 24.5482 24.2066 23.9755 24.0928C23.4029 23.9789 22.8768 23.6977 22.4639 23.2849L18.7539 19.5762H11.2539Z" stroke="#707070" stroke-width="1.5" stroke-linecap="round" stroke-linejoin="round"/>
<path d="M11.2539 7.07617L12.5039 9.57617H17.5039L18.7539 7.07617" stroke="#707070" stroke-width="1.5" stroke-linecap="round" stroke-linejoin="round"/>
</svg>
