<svg width="30" height="31" viewBox="0 0 30 31" fill="none" xmlns="http://www.w3.org/2000/svg">
<g clip-path="url(#clip0_283_1428)">
<path d="M21.2539 26.9688V24.4688C21.2539 23.1427 20.7271 21.8709 19.7894 20.9332C18.8518 19.9955 17.58 19.4688 16.2539 19.4688H6.25391C4.92782 19.4688 3.65605 19.9955 2.71837 20.9332C1.78069 21.8709 1.25391 23.1427 1.25391 24.4688V26.9688" stroke="#707070" stroke-width="1.5" stroke-linecap="round" stroke-linejoin="round"/>
<path d="M11.2539 14.4688C14.0153 14.4688 16.2539 12.2302 16.2539 9.46875C16.2539 6.70733 14.0153 4.46875 11.2539 4.46875C8.49248 4.46875 6.25391 6.70733 6.25391 9.46875C6.25391 12.2302 8.49248 14.4688 11.2539 14.4688Z" stroke="#707070" stroke-width="1.5" stroke-linecap="round" stroke-linejoin="round"/>
<path d="M28.7539 26.9684V24.4684C28.7531 23.3605 28.3844 22.2843 27.7056 21.4088C27.0269 20.5332 26.0766 19.9078 25.0039 19.6309" stroke="#707070" stroke-width="1.5" stroke-linecap="round" stroke-linejoin="round"/>
<path d="M20.0039 4.63086C21.0794 4.90624 22.0327 5.53174 22.7135 6.40875C23.3942 7.28576 23.7637 8.3644 23.7637 9.47461C23.7637 10.5848 23.3942 11.6635 22.7135 12.5405C22.0327 13.4175 21.0794 14.043 20.0039 14.3184" stroke="#707070" stroke-width="1.5" stroke-linecap="round" stroke-linejoin="round"/>
</g>
<defs>
<clipPath id="clip0_283_1428">
<rect width="30" height="30" fill="white" transform="translate(0.00390625 0.71875)"/>
</clipPath>
</defs>
</svg>
